<svg xmlns="http://www.w3.org/2000/svg" viewBox="0 0 32 32">
  <!-- Background - dark with slight blue tint like glass -->
  <rect width="32" height="32" fill="#0a0a12" rx="2"/>

  <!-- Eighth note behind the glass -->
  <g fill="#7b5caa">
    <!-- Note head (oval, tilted) -->
    <ellipse cx="10" cy="23" rx="5.5" ry="4" transform="rotate(-25 10 23)"/>
    <!-- Stem -->
    <rect x="14" y="6" width="2.5" height="17" rx="0.5"/>
    <!-- Flag -->
    <path d="M16.5,6 C26,9 24,15 18,20 L18,15 C21,12 22,9 16.5,8 Z"/>
  </g>

  <!-- Shattered glass - radial cracks from impact point -->
  <g stroke="#4a7c9b" stroke-width="0.8" fill="none">
    <!-- Main radial cracks -->
    <line x1="12" y1="10" x2="0" y2="0"/>
    <line x1="12" y1="10" x2="6" y2="0"/>
    <line x1="12" y1="10" x2="18" y2="0"/>
    <line x1="12" y1="10" x2="32" y2="2"/>
    <line x1="12" y1="10" x2="32" y2="12"/>
    <line x1="12" y1="10" x2="30" y2="24"/>
    <line x1="12" y1="10" x2="24" y2="32"/>
    <line x1="12" y1="10" x2="10" y2="32"/>
    <line x1="12" y1="10" x2="0" y2="28"/>
    <line x1="12" y1="10" x2="0" y2="14"/>
    <line x1="12" y1="10" x2="32" y2="0"/>
    <line x1="12" y1="10" x2="16" y2="32"/>

    <!-- Concentric crack rings -->
    <path d="M6,4 Q9,8 4,12"/>
    <path d="M18,3 Q14,7 20,10"/>
    <path d="M22,8 Q18,14 24,18"/>
    <path d="M8,16 Q12,20 6,24"/>
    <path d="M16,18 Q20,22 14,28"/>
    <path d="M2,8 Q6,12 2,18"/>

    <!-- Secondary fractures -->
    <line x1="8" y1="6" x2="4" y2="10"/>
    <line x1="18" y1="6" x2="24" y2="4"/>
    <line x1="20" y1="14" x2="28" y2="18"/>
    <line x1="14" y1="20" x2="20" y2="28"/>
    <line x1="6" y1="18" x2="2" y2="24"/>
  </g>

  <!-- Brighter highlights on some cracks for glass effect -->
  <g stroke="#9ad0f0" stroke-width="0.6" fill="none">
    <line x1="12" y1="10" x2="4" y2="2"/>
    <line x1="12" y1="10" x2="28" y2="6"/>
    <line x1="12" y1="10" x2="20" y2="30"/>
    <path d="M9,7 Q12,10 8,14"/>
  </g>

  <!-- Impact point highlight -->
  <circle cx="12" cy="10" r="2" fill="#9ad0f0"/>
  <circle cx="12" cy="10" r="4" fill="none" stroke="#5a8cac" stroke-width="0.6"/>
</svg>
